<?xml version="1.0" encoding="UTF-8" standalone="no"?>
<!-- Created with Inkscape (http://www.inkscape.org/) -->

<svg
   xmlns:dc="http://purl.org/dc/elements/1.1/"
   xmlns:cc="http://creativecommons.org/ns#"
   xmlns:rdf="http://www.w3.org/1999/02/22-rdf-syntax-ns#"
   xmlns:svg="http://www.w3.org/2000/svg"
   xmlns="http://www.w3.org/2000/svg"
   xmlns:sodipodi="http://sodipodi.sourceforge.net/DTD/sodipodi-0.dtd"
   xmlns:inkscape="http://www.inkscape.org/namespaces/inkscape"
   width="744.09448819"
   height="1052.3622047"
   id="svg2"
   version="1.1"
   inkscape:version="0.48.4 r9939"
   sodipodi:docname="Nuovo documento 1">
  <sodipodi:namedview
     id="base"
     pagecolor="#ffffff"
     bordercolor="#666666"
     borderopacity="1.0"
     inkscape:pageopacity="0.0"
     inkscape:pageshadow="2"
     inkscape:zoom="1.4"
     inkscape:cx="611.37091"
     inkscape:cy="840.11574"
     inkscape:document-units="px"
     inkscape:current-layer="layer1"
     showgrid="false"
     inkscape:window-width="1920"
     inkscape:window-height="1031"
     inkscape:window-x="0"
     inkscape:window-y="0"
     inkscape:window-maximized="1" />
  <defs
     id="defs4">
    <marker
       style="overflow:visible"
       id="Arrow1Lstart"
       refX="0.0"
       refY="0.0"
       orient="auto"
       inkscape:stockid="Arrow1Lstart">
      <path
         transform="scale(0.8) translate(12.5,0)"
         style="fill-rule:evenodd;stroke:#000000;stroke-width:1.0pt"
         d="M 0.0,0.0 L 5.0,-5.0 L -12.5,0.0 L 5.0,5.0 L 0.0,0.0 z "
         id="path3804" />
    </marker>
    <marker
       style="overflow:visible;"
       id="Arrow1Lend"
       refX="0.0"
       refY="0.0"
       orient="auto"
       inkscape:stockid="Arrow1Lend">
      <path
         transform="scale(0.8) rotate(180) translate(12.5,0)"
         style="fill-rule:evenodd;stroke:#000000;stroke-width:1.0pt;"
         d="M 0.0,0.0 L 5.0,-5.0 L -12.5,0.0 L 5.0,5.0 L 0.0,0.0 z "
         id="path3807" />
    </marker>
    <marker
       style="overflow:visible"
       id="Arrow1Mstart"
       refX="0.0"
       refY="0.0"
       orient="auto"
       inkscape:stockid="Arrow1Mstart">
      <path
         transform="scale(0.4) translate(10,0)"
         style="fill-rule:evenodd;stroke:#000000;stroke-width:1.0pt"
         d="M 0.0,0.0 L 5.0,-5.0 L -12.5,0.0 L 5.0,5.0 L 0.0,0.0 z "
         id="path3810" />
    </marker>
    <marker
       style="overflow:visible"
       id="Arrow1Lstart-8"
       refX="0"
       refY="0"
       orient="auto"
       inkscape:stockid="Arrow1Lstart">
      <path
         transform="matrix(0.8,0,0,0.8,10,0)"
         style="fill-rule:evenodd;stroke:#000000;stroke-width:1pt"
         d="M 0,0 5,-5 -12.5,0 5,5 0,0 z"
         id="path3804-6"
         inkscape:connector-curvature="0" />
    </marker>
    <marker
       style="overflow:visible"
       id="Arrow1Lend-2"
       refX="0"
       refY="0"
       orient="auto"
       inkscape:stockid="Arrow1Lend">
      <path
         transform="matrix(-0.8,0,0,-0.8,-10,0)"
         style="fill-rule:evenodd;stroke:#000000;stroke-width:1pt"
         d="M 0,0 5,-5 -12.5,0 5,5 0,0 z"
         id="path3807-4"
         inkscape:connector-curvature="0" />
    </marker>
    <marker
       style="overflow:visible"
       id="Arrow1Lstart4"
       refX="0.0"
       refY="0.0"
       orient="auto"
       inkscape:stockid="Arrow1Lstart4">
      <path
         transform="scale(0.8) translate(12.5,0)"
         style="stroke:#ffff00;stroke-width:1.0pt;fill:#ffff00;fill-rule:evenodd"
         d="M 0.0,0.0 L 5.0,-5.0 L -12.5,0.0 L 5.0,5.0 L 0.0,0.0 z "
         id="path4847" />
    </marker>
    <marker
       style="overflow:visible;"
       id="Arrow1LendY"
       refX="0.0"
       refY="0.0"
       orient="auto"
       inkscape:stockid="Arrow1LendY">
      <path
         transform="scale(0.8) rotate(180) translate(12.5,0)"
         style="stroke:#ffff00;stroke-width:1.0pt;fill:#ffff00;fill-rule:evenodd"
         d="M 0.0,0.0 L 5.0,-5.0 L -12.5,0.0 L 5.0,5.0 L 0.0,0.0 z "
         id="path4850" />
    </marker>
    <marker
       style="overflow:visible"
       id="Arrow1LstartW"
       refX="0.0"
       refY="0.0"
       orient="auto"
       inkscape:stockid="Arrow1LstartW">
      <path
         transform="scale(0.8) translate(12.5,0)"
         style="stroke:#ffff00;stroke-width:1.0pt;fill:#ffff00;fill-rule:evenodd"
         d="M 0.0,0.0 L 5.0,-5.0 L -12.5,0.0 L 5.0,5.0 L 0.0,0.0 z "
         id="path4910" />
    </marker>
    <marker
       style="overflow:visible;"
       id="Arrow1Lendh"
       refX="0.0"
       refY="0.0"
       orient="auto"
       inkscape:stockid="Arrow1Lendh">
      <path
         transform="scale(0.8) rotate(180) translate(12.5,0)"
         style="stroke:#ffff00;stroke-width:1.0pt;fill:#ffff00;fill-rule:evenodd"
         d="M 0.0,0.0 L 5.0,-5.0 L -12.5,0.0 L 5.0,5.0 L 0.0,0.0 z "
         id="path4913" />
    </marker>
    <marker
       style="overflow:visible"
       id="Arrow1LstartWU"
       refX="0.0"
       refY="0.0"
       orient="auto"
       inkscape:stockid="Arrow1LstartWU">
      <path
         transform="scale(0.8) translate(12.5,0)"
         style="fill-rule:evenodd;stroke:#ff0000;stroke-width:1.0pt;fill:#ff0000"
         d="M 0.0,0.0 L 5.0,-5.0 L -12.5,0.0 L 5.0,5.0 L 0.0,0.0 z "
         id="path4980" />
    </marker>
    <marker
       style="overflow:visible;"
       id="Arrow1LendhH"
       refX="0.0"
       refY="0.0"
       orient="auto"
       inkscape:stockid="Arrow1LendhH">
      <path
         transform="scale(0.8) rotate(180) translate(12.5,0)"
         style="fill-rule:evenodd;stroke:#ff0000;stroke-width:1.0pt;fill:#ff0000"
         d="M 0.0,0.0 L 5.0,-5.0 L -12.5,0.0 L 5.0,5.0 L 0.0,0.0 z "
         id="path4983" />
    </marker>
    <marker
       style="overflow:visible"
       id="Arrow1Lstart4J"
       refX="0.0"
       refY="0.0"
       orient="auto"
       inkscape:stockid="Arrow1Lstart4J">
      <path
         transform="scale(0.8) translate(12.5,0)"
         style="fill-rule:evenodd;stroke:#ff0000;stroke-width:1.0pt;fill:#ff0000"
         d="M 0.0,0.0 L 5.0,-5.0 L -12.5,0.0 L 5.0,5.0 L 0.0,0.0 z "
         id="path4986" />
    </marker>
    <marker
       style="overflow:visible;"
       id="Arrow1LendYK"
       refX="0.0"
       refY="0.0"
       orient="auto"
       inkscape:stockid="Arrow1LendYK">
      <path
         transform="scale(0.8) rotate(180) translate(12.5,0)"
         style="fill-rule:evenodd;stroke:#ff0000;stroke-width:1.0pt;fill:#ff0000"
         d="M 0.0,0.0 L 5.0,-5.0 L -12.5,0.0 L 5.0,5.0 L 0.0,0.0 z "
         id="path4989" />
    </marker>
  </defs>
  <metadata
     id="metadata7">
    <rdf:RDF>
      <cc:Work
         rdf:about="">
        <dc:format>image/svg+xml</dc:format>
        <dc:type
           rdf:resource="http://purl.org/dc/dcmitype/StillImage" />
        <dc:title></dc:title>
      </cc:Work>
    </rdf:RDF>
  </metadata>
  <g
     id="layer1"
     inkscape:groupmode="layer"
     inkscape:label="Livello 1">
    <g
       transform="matrix(3.8655476,0,0,2.9458711,-669.54885,-644.3524)"
       id="text2985"
       style="font-size:144px;font-style:normal;font-variant:normal;font-weight:bold;font-stretch:normal;line-height:125%;letter-spacing:0px;word-spacing:0px;fill:#2060b0;fill-opacity:1;stroke:none;font-family:DejaVu Sans;-inkscape-font-specification:DejaVu Sans Bold">
      <path
         sodipodi:nodetypes="ccssccccsscccccccc"
         inkscape:connector-curvature="0"
         id="path3758"
         style="font-weight:600;text-align:center;text-anchor:middle;fill:#2060b0;font-family:NanumGothic;-inkscape-font-specification:NanumGothic Semi-Bold"
         d="m 304.7157,268.90564 0,94.478 c -8e-5,1.26188 -0.89112,1.89283 -2.67314,1.89284 l -19.82578,0 c -1.78213,-10e-6 -2.67318,-0.63096 -2.67313,-1.89284 l 0,-94.478 -43.21574,0 c -0.74254,9e-5 -1.41083,-0.15764 -2.00486,-0.4732 -0.44552,-0.42055 -0.66828,-0.94633 -0.66828,-1.57737 l 0,-18.6189 c 0,-0.52568 0.22276,-0.94631 0.66828,-1.26189 0.59403,-0.42052 1.26232,-0.63083 2.00486,-0.63094 l 111.82629,0 c 0.74242,1.1e-4 1.33645,0.21042 1.78209,0.63094 0.59391,0.31558 0.89093,0.73621 0.89105,1.26189 l 0,18.6189 c -1.2e-4,1.36714 -0.89117,2.05066 -2.67314,2.05057 l -43.4385,0" />
    </g>
    <text
       sodipodi:linespacing="125%"
       id="text3760"
       y="235.93361"
       x="320.89285"
       style="font-size:144px;font-style:normal;font-weight:normal;line-height:125%;letter-spacing:0px;word-spacing:0px;fill:#000000;fill-opacity:1;stroke:none;font-family:Sans"
       xml:space="preserve"><tspan
         id="tspan3762"
         sodipodi:role="line" /></text>
    <text
       transform="scale(0.90812045,1.1011755)"
       sodipodi:linespacing="125%"
       id="text3764"
       y="117.17615"
       x="274.49594"
       style="font-size:42.57287598px;font-style:normal;font-variant:normal;font-weight:normal;font-stretch:normal;text-align:start;line-height:125%;letter-spacing:0px;word-spacing:0px;writing-mode:lr-tb;text-anchor:start;fill:#ffff00;fill-opacity:1;stroke:none;font-family:Sans;-inkscape-font-specification:Sans"
       xml:space="preserve"><tspan
         y="117.17615"
         x="274.49594"
         id="tspan3766"
         sodipodi:role="line">Breadth of Knowledge</tspan></text>
    <text
       transform="matrix(0,-0.74845034,1.336094,0,0,0)"
       sodipodi:linespacing="125%"
       id="text3768"
       y="353.89987"
       x="-563.40521"
       style="font-size:38.40196609px;font-style:normal;font-variant:normal;font-weight:normal;font-stretch:normal;text-align:start;line-height:125%;letter-spacing:0px;word-spacing:0px;writing-mode:lr-tb;text-anchor:start;fill:#ffff00;fill-opacity:1;stroke:none;font-family:Sans;-inkscape-font-specification:Sans"
       xml:space="preserve"><tspan
         y="353.89987"
         x="-563.40521"
         id="tspan3770"
         sodipodi:role="line">Depth of Expertise</tspan></text>
    <path
       inkscape:connector-curvature="0"
       id="path3798"
       d="m 537.14285,156.96299 0,261.51267"
       style="stroke-linejoin:miter;marker-end:url(#Arrow1LendhH);stroke-opacity:1;marker-start:url(#Arrow1LstartWU);stroke:#ff0000;stroke-linecap:butt;stroke-miterlimit:4;stroke-dasharray:none;stroke-width:2.63018464999999990;fill:#800000" />
    <path
       inkscape:connector-curvature="0"
       id="path3798-1"
       d="m 668.28766,58.076467 -419.43249,0"
       style="stroke-linejoin:miter;marker-end:url(#Arrow1LendYK);stroke-opacity:1;marker-start:url(#Arrow1Lstart4J);stroke:#ff0000;stroke-linecap:butt;stroke-miterlimit:4;stroke-dasharray:none;stroke-width:3.28200000000000003;fill:#800000" />
  </g>
</svg>
